<svg width="56" height="56" viewBox="0 0 56 56" fill="none" xmlns="http://www.w3.org/2000/svg">
<path d="M13.0664 13.0682C13.0664 8.9445 16.4093 5.60156 20.5331 5.60156H27.9997V20.5349H20.5331C16.4094 20.5349 13.0664 17.192 13.0664 13.0682Z" fill="#F24E1E"/>
<path d="M42.9331 13.0682C42.9331 8.9445 39.5902 5.60156 35.4664 5.60156H27.9998V20.5349H35.4664C39.5902 20.5349 42.9331 17.192 42.9331 13.0682Z" fill="#FF7262"/>
<path d="M13.0664 27.9979C13.0664 23.8742 16.4093 20.5312 20.5331 20.5312H27.9997V35.4646H20.5331C16.4094 35.4646 13.0664 32.1216 13.0664 27.9979Z" fill="#A259FF"/>
<rect x="27.9995" y="20.5312" width="14.9333" height="14.9333" rx="7.46667" fill="#1ABCFE"/>
<path d="M13.0664 42.9354C13.0664 38.8117 16.4093 35.4688 20.5331 35.4688H27.9997V42.9354C27.9997 47.0591 24.6568 50.4021 20.5331 50.4021C16.4093 50.4021 13.0664 47.0591 13.0664 42.9354Z" fill="#0ACF83"/>
</svg>
